<?xml version="1.0" standalone="no"?>
<!DOCTYPE svg PUBLIC "-//W3C//DTD SVG 1.1//EN" "http://www.w3.org/Graphics/SVG/1.1/DTD/svg11.dtd" >
<svg xmlns="http://www.w3.org/2000/svg" xmlns:xlink="http://www.w3.org/1999/xlink" version="1.1" viewBox="-30 -210 2570 2248">
  <g transform="matrix(1 0 0 -1 0 1638)">
   <path fill="currentColor"
d="M537 1694q0 -70 -26 -70q-22 0 -54 52q-33 52 -33 88q0 23 13.5 43t39.5 20q25 0 42.5 -31.5t17.5 -101.5zM368 1534q-27 0 -52.5 4.5t-44.5 14t-30.5 23.5t-11.5 32q0 23 19 38t39 15q43 0 97 -38q55 -37 55 -60q0 -29 -71 -29zM626 1596q-20 0 -20 24q0 49 38 103
q39 56 77 56q17 0 34.5 -12t18.5 -29q1 -27 -17 -52t-43 -44.5t-50 -31.5t-38 -14zM272 1373q0 36 52 67q54 31 97 31q26 0 26 -18q0 -24 -36 -64q-17 -20 -29.5 -33t-22.5 -18q-20 -15 -42 -15q-20 0 -32.5 15t-12.5 35zM752 1293q0 -20 -13 -33t-35 -13q-34 0 -64 48
q-32 47 -32 104q0 30 20 30q10 0 30.5 -13.5t41.5 -33.5t36.5 -44t15.5 -45zM519 1410q35 0 35 -115q0 -104 -56 -104q-28 0 -43.5 19.5t-15.5 48.5q0 42 29 96q28 55 51 55zM541 1581q28 0 46.5 -18.5t18.5 -46.5t-18.5 -46t-46.5 -18t-46 18t-18 46t18 46.5t46 18.5z
M1748 1051q0 45 -66.5 71t-185.5 26q-87 0 -168.5 -21t-159.5 -66q-156 -89 -246 -240q-91 -151 -91 -325q0 -104 43 -196q44 -93 86 -93q15 0 26 7.5t17.5 20t9.5 28.5t3 32l-1 56q-3 112 33 212.5t106 190.5q139 178 366 234l50 7q90 12 134 24t44 32zM2271 493
q0 -204 -104 -382q-52 -88 -122.5 -158t-161.5 -122q-179 -103 -387 -103t-386 102q-90 51 -161 119.5t-123 157.5q-104 177 -104 386q0 205 104 382q106 180 283 280q91 51 187 80.5t200 22.5l108 -8q11 -2 22 3t22 14l40 32q38 31 71.5 47.5t60.5 16.5q20 0 43.5 -5
t51.5 -14q50 72 50 161q0 117 -84 197q-84 81 -207 81q-49 0 -102 -13.5t-106.5 -37.5t-106 -57.5t-99.5 -72.5q-53 -43 -107.5 -77.5t-111.5 -60.5q-113 -50 -204 -50h-14l-13 1q-150 15 -150 66q0 26 15 35.5t29 9.5q8 0 17 -1t19 -5q39 -13 98 -13q80 0 163 42
q42 22 100.5 63.5t134.5 102.5q48 37 102 67t110 50.5t113 31.5t110 11q169 0 282 -108q114 -111 114 -267q0 -105 -59 -205q54 -41 79.5 -84t25.5 -102l-11 -98q0 -35 14.5 -57.5t33.5 -51.5q62 -96 91.5 -198t29.5 -211z" />
  </g>

</svg>
